<?xml version="1.0" encoding="UTF-8" standalone="no"?>
<!-- Created with Inkscape (http://www.inkscape.org/) -->

<svg
   xmlns:dc="http://purl.org/dc/elements/1.1/"
   xmlns:cc="http://creativecommons.org/ns#"
   xmlns:rdf="http://www.w3.org/1999/02/22-rdf-syntax-ns#"
   xmlns:svg="http://www.w3.org/2000/svg"
   xmlns="http://www.w3.org/2000/svg"
   xmlns:sodipodi="http://sodipodi.sourceforge.net/DTD/sodipodi-0.dtd"
   xmlns:inkscape="http://www.inkscape.org/namespaces/inkscape"
   id="svg8"
   version="1.1"
   viewBox="0 0 210 297"
   height="297mm"
   width="210mm"
   inkscape:version="0.92.0 r15299"
   sodipodi:docname="logo-main.svg">
  <sodipodi:namedview
     inkscape:window-maximized="1"
     inkscape:window-y="-8"
     inkscape:window-x="-8"
     inkscape:window-height="1018"
     inkscape:window-width="1920"
     inkscape:guide-bbox="true"
     showguides="true"
     showgrid="false"
     inkscape:current-layer="layer1"
     inkscape:document-units="mm"
     inkscape:cy="1334.9176"
     inkscape:cx="-628.98942"
     inkscape:zoom="0.35"
     inkscape:pageshadow="2"
     inkscape:pageopacity="0.0"
     borderopacity="1.0"
     bordercolor="#666666"
     pagecolor="#ffffff"
     id="base"
     inkscape:snap-nodes="false">
    <sodipodi:guide
       position="-39.687499,278.56846"
       orientation="1,0"
       id="guide4518"
       inkscape:locked="false" />
    <sodipodi:guide
       position="-14.741071,298.6012"
       orientation="1,0"
       id="guide4520"
       inkscape:locked="false" />
    <sodipodi:guide
       inkscape:locked="false"
       id="guide4608"
       orientation="1,0"
       position="12.428033,284.90932" />
    <sodipodi:guide
       inkscape:locked="false"
       id="guide4610"
       orientation="1,0"
       position="36.348655,265.79955" />
    <sodipodi:guide
       inkscape:locked="false"
       id="guide4612"
       orientation="1,0"
       position="63.476511,274.21854" />
    <sodipodi:guide
       inkscape:locked="false"
       id="guide4614"
       orientation="-1,-3.9747303e-008"
       position="90.470733,270.34313" />
    <sodipodi:guide
       inkscape:locked="false"
       id="guide4616"
       orientation="1,0"
       position="119.20221,275.02035" />
  </sodipodi:namedview>
  <defs
     id="defs2">
    <inkscape:path-effect
       fuse_tolerance="0"
       vertical_pattern="false"
       prop_units="false"
       tang_offset="0"
       normal_offset="0"
       spacing="0"
       scale_y_rel="false"
       prop_scale="0.29496911"
       copytype="single_stretched"
       pattern="m 203.10763,99.455957 c 0,-2.76 2.24,-5 5,-5 2.76,0 5,2.24 5,5 0,2.759993 -2.24,4.999993 -5,4.999993 -2.76,0 -5,-2.24 -5,-4.999993 z"
       is_visible="true"
       id="path-effect5117"
       effect="skeletal" />
    <inkscape:path-effect
       is_visible="true"
       id="path-effect5115"
       effect="spiro" />
    <inkscape:path-effect
       effect="skeletal"
       id="path-effect5111"
       is_visible="true"
       pattern="m 203.10763,90.762505 c 0,-2.76 2.24,-5 5,-5 2.76,0 5,2.24 5,5 0,2.76 -2.24,5 -5,5 -2.76,0 -5,-2.24 -5,-5 z"
       copytype="single_stretched"
       prop_scale="0.29496911"
       scale_y_rel="false"
       spacing="0"
       normal_offset="0"
       tang_offset="0"
       prop_units="false"
       vertical_pattern="false"
       fuse_tolerance="0" />
    <inkscape:path-effect
       effect="spiro"
       id="path-effect5109"
       is_visible="true" />
  </defs>
  <metadata
     id="metadata5">
    <rdf:RDF>
      <cc:Work
         rdf:about="">
        <dc:format>image/svg+xml</dc:format>
        <dc:type
           rdf:resource="http://purl.org/dc/dcmitype/StillImage" />
        <dc:title></dc:title>
      </cc:Work>
    </rdf:RDF>
  </metadata>
  <g
     inkscape:label="Layer 1"
     inkscape:groupmode="layer"
     id="layer1">
    <g
       id="g5140"
       transform="translate(17.386905,29.860119)"
       style="fill:#ffffff"
       inkscape:export-xdpi="90"
       inkscape:export-ydpi="90">
      <path
         sodipodi:nodetypes="ccccccsccccccc"
         inkscape:connector-curvature="0"
         id="path5128"
         transform="scale(0.26458333)"
         d="m 847.48828,2.7128906 c -0.10626,-0.00215 -0.21255,0.00176 -0.31836,0.011719 C 707.62678,15.650964 580.06059,60.104759 469.62695,148.65039 c -3.16124,-4.64692 -6.38079,-9.20572 -9.64648,-13.69141 v 139.90235 c 12.41269,-13.33217 25.07588,-27.34507 38.02734,-42.08399 230.23274,119.1655 345.22207,145.49815 345.22207,145.49815 0.36026,6.66145 -249.53691,-233.46714 6.23692,-370.8633806 1.64865,-1.763179 0.43478,-4.6462509 -1.97852,-4.6992188 z M -159.44922,106.66992 c -36.57204,30.91752 -73.33903,67.38297 -110.01562,109.73633 -0.95871,1.1073 -0.89903,2.76714 0.13672,3.80273 38.96673,38.96674 75.37918,73.83831 109.8789,104.35157 z"
         style="color:#000000;font-style:normal;font-variant:normal;font-weight:normal;font-stretch:normal;font-size:medium;line-height:normal;font-family:sans-serif;font-variant-ligatures:normal;font-variant-position:normal;font-variant-caps:normal;font-variant-numeric:normal;font-variant-alternates:normal;font-feature-settings:normal;text-indent:0;text-align:start;text-decoration:none;text-decoration-line:none;text-decoration-style:solid;text-decoration-color:#000000;letter-spacing:normal;word-spacing:normal;text-transform:none;writing-mode:lr-tb;direction:ltr;text-orientation:mixed;dominant-baseline:auto;baseline-shift:baseline;text-anchor:start;white-space:normal;shape-padding:0;clip-rule:nonzero;display:inline;overflow:visible;visibility:visible;opacity:1;isolation:auto;mix-blend-mode:normal;color-interpolation:sRGB;color-interpolation-filters:linearRGB;solid-color:#000000;solid-opacity:1;vector-effect:none;fill:#ffffff;fill-opacity:1;fill-rule:nonzero;stroke:none;stroke-width:5.58462477;stroke-linecap:butt;stroke-linejoin:round;stroke-miterlimit:4;stroke-dasharray:none;stroke-dashoffset:0;stroke-opacity:1;marker:none;color-rendering:auto;image-rendering:auto;shape-rendering:auto;text-rendering:auto;enable-background:accumulate" />
      <path
         sodipodi:nodetypes="ccscccccccscccccssscccscccccccccsscsccssscsccccccccccccsccscccccccccssccccccccsccccssssccccsccccccsccsccccccccccccccccccccsccsccccccccccccccccccccccccccccccsscccccccccccccccccccccccccccccccccccccccccccscccccccccccccccccccsccccccscc"
         inkscape:connector-curvature="0"
         id="path4509"
         transform="scale(0.26458333)"
         d="M 161.68555,-24.697266 148.57617,242.71289 c 1.47754,0.46915 2.95133,0.94578 4.4336,1.40625 10.74838,3.33901 21.33399,6.33686 31.8164,9.00781 1.65386,-48.11814 3.3036,-103.991 4.95117,-168.365231 3.23989,72.661561 5.49639,129.519931 6.81055,171.220701 11.20902,2.59269 22.31757,4.79594 33.37305,6.53125 0.73327,0.1148 1.45915,0.21764 2.18945,0.32813 L 220.24805,-21.433594 Z m -63.880862,6.63086 c -3.083338,0.0302 -6.417745,0.372489 -10,1.023437 L 46.972656,-9.6230469 V 205.52344 c 13.040147,4.68775 26.381865,9.98636 40.91211,15.61328 14.079964,5.43289 28.752344,10.87267 43.765624,15.99805 0.92432,-3.52156 1.70762,-7.30018 2.33789,-11.35743 2.25951,-14.5451 3.39258,-37.70129 3.39258,-69.43164 v -43.29492 c 0,-31.116203 -0.60259,-53.970443 -1.80469,-68.542968 -1.12959,-14.763022 -3.34842,-27.091842 -6.64648,-36.9687495 -3.21347,-9.8439581 -8.0403,-16.9312816 -14.45117,-21.2675785 -4.32182,-2.963318 -9.89049,-4.404328 -16.673832,-4.33789 z M 19.058594,2.4785156 -38.779297,29.03125 -45.933594,187.12891 c 10.130469,0.0518 20.755724,0.74843 31.78125,2.30273 1.106301,-24.1788 2.378721,-50.69756 3.958985,-81.60937 0.887071,29.63355 1.7772323,56.93474 2.6718746,82.64843 2.4750435,0.421 4.9620805,0.87407 7.47265627,1.38477 10.73938413,2.19942 21.01129213,5.01811 31.25195313,8.29297 z M 282.38477,2.6015625 c -6.39115,-0.09816 -12.23457,1.9210773 -17.46875,6.1542969 -9.74814,7.8839366 -16.46698,22.0502346 -19.8418,42.4550786 -3.42871,20.915108 -5.16211,53.533172 -5.16211,97.603512 v 115.13282 c 17.52169,2.31976 34.16206,3.38792 49.92969,3.36718 V 116.80469 c 0,-19.339701 0.49006,-31.837206 1.46484,-37.472659 0.96985,-5.606925 3.13274,-7.917088 6.45117,-6.964843 3.12899,0.897883 5.13275,4.322798 6.04492,10.263671 0.97237,5.927857 1.45704,19.341141 1.45704,40.265621 v 47.90625 l 36.67773,0.96094 v 56.32617 l -36.67773,5.25 v 33.60352 c 12.84727,-0.61412 25.06537,-1.97294 36.66992,-3.9707 0.001,-0.73146 0.008,-1.41037 0.008,-2.15039 v 2.14843 c 11.91194,-2.05103 23.17779,-4.77267 33.78906,-8.07226 13.31919,-4.1289 25.02764,-8.79265 35.17774,-13.48438 v -35.91797 c 6.35142,0.23217 9.87919,1.28406 11.04687,3.14063 1.20034,1.8157 1.79102,6.98901 1.79102,15.55078 v 10.88086 c 11.81737,-6.24902 20.6965,-12.09389 26.78515,-16.34375 v -2.30078 c 0,-10.66667 -0.80672,-18.54207 -2.4707,-23.7793 -1.69591,-5.5085 -4.40701,-9.56475 -8.32226,-12.16015 -4.27121,-2.83135 -11.3309,-5.7085 -22.38477,-8.86329 l -6.44531,-1.83984 V 91.744141 L 341.9375,28.234375 V 158.37305 c 0,-35.56666 -0.94489,-61.023218 -2.84961,-76.503909 C 337.2151,66.228847 332.93766,51.390074 326.07031,37.066406 318.98095,22.181595 309.81341,11.96269 298.26172,6.625 292.65826,4.0358133 287.35566,2.6779093 282.38477,2.6015625 Z M -55.714844,36.804688 -103.17773,69.525391 c -4.11231,10.101199 -6.22676,25.382884 -6.47266,46.117189 l -0.73438,55.9082 c -0.2434,15.14571 -3.91028,23.09602 -10.61718,23.83789 L -121.16406,81.925781 -150,101.80469 V 210.875 c 6.85784,-3.61888 16.98423,-8.18911 30.5,-12.53516 13.77749,-4.4302 31.430472,-8.58219 51.851562,-10.33984 2.6983,-8.65121 4.0927,-19.14421 4.029297,-31.47461 l -0.283203,-60.724609 c -0.09419,-26.912092 2.571462,-46.431104 8.1875,-58.996093 z M 89.460938,65.044922 c 4.357998,0.0057 7.307484,2.090959 8.832031,6.263672 1.746611,4.780505 2.623051,15.45966 2.623051,32.027346 v 39.82226 c 0,17.96496 -0.7748,29.8768 -2.320317,35.72852 -1.475191,5.63738 -4.14976,8.52349 -8.009765,8.66601 -0.8623,0.0319 -1.889588,-0.0299 -3.080079,-0.18359 V 65.169922 c 0.679955,-0.08404 1.332507,-0.125809 1.955079,-0.125 z m -135.785157,130.687498 -1.078125,23.83203 c 10.128276,-0.0107 20.767225,0.63028 31.808594,2.11719 0.29787,-7.07126 0.655328,-14.98589 1.005859,-22.80273 -10.981121,-1.84209 -21.596995,-2.81937 -31.736328,-3.14649 z m -24.517578,0.42969 c -18.258784,1.22885 -34.256583,4.31034 -47.076173,7.62891 -14.19003,3.67332 -24.86306,7.45716 -32.08203,10.1875 v 29.33789 c 6.85784,-3.61889 16.98423,-8.18716 30.5,-12.53321 9.37386,-3.0142 20.541898,-5.90154 33.154297,-7.99218 -3.531081,-2.3897 -7.431478,-4.18592 -11.681641,-5.36329 12.054144,-1.9916 21.319796,-9.1244 27.185547,-21.26562 z m 63.654297,4.08203 c 0.2824062,7.95439 0.5664466,15.31038 0.8496094,22.87305 2.0858555,0.36573 4.1782172,0.7503 6.28906247,1.17969 11.45002513,2.34495 22.36926313,5.39097 33.28515613,8.94726 l -1.355469,-22.06055 c -11.204207,-3.9054 -22.2856928,-7.25855 -33.9511715,-9.85742 -1.7136724,-0.38429 -3.4186806,-0.7408 -5.1171875,-1.08203 z m 54.160156,16.48047 v 21.24219 c 13.040091,4.68773 26.38193,9.98638 40.91211,15.61328 9.303164,3.58971 18.871944,7.18055 28.617184,10.68554 1.82947,-1.47401 3.53655,-3.22111 5.11328,-5.25976 2.48642,-3.17708 4.64868,-6.95541 6.49415,-11.31641 -15.21827,-5.2298 -30.020624,-10.80196 -44.187505,-16.40429 -13.273122,-5.2304 -25.32652,-10.12833 -36.949219,-14.56055 z m 403.554684,4.92383 c -5.94875,5.3077 -14.7093,12.27494 -26.78515,19.58789 v 12.41406 c 0,6.4576 -0.42293,11.2699 -1.26563,14.52149 12.41121,-6.47757 21.69777,-12.57372 28,-16.97071 0.0315,-1.54235 0.0508,-3.12472 0.0508,-4.77734 z m -498.316402,6.48047 -7.925782,175.10547 36.205078,18.88671 2.291016,-71.45312 14.3925781,4.97265 2.08203128,76.27149 L 46.972656,456.80469 33.917969,244.33398 c -11.901983,-4.21356 -23.615904,-7.81005 -35.9882815,-10.5664 -1.3046424,-0.29257 -2.6044798,-0.56843 -3.9003906,-0.83594 0.6532175,17.03488 1.3075926,33.40707 1.9648437,48.35352 l -13.6738286,-2.34571 c 0.360438,-13.0806 0.926096,-29.05413 1.691407,-47.84765 -11.011007,-1.77882 -21.65185,-2.69666 -31.800781,-2.96289 z m 94.761718,228.67578 40.533203,6.40625 V 269.82617 l 11.291016,0.23828 c 0.493979,0.0105 0.980419,0.005 1.464845,-0.006 -5.52797,-2.09553 -10.980259,-4.21257 -16.339845,-6.33203 -13.273196,-5.23043 -25.32646,-10.12831 -36.949219,-14.56054 z m -102.6875,-53.57031 c -5.616056,-16.00275 -8.281686,-37.1041 -8.1875,-63.86133 l 0.283203,-56.31836 c 0.124317,-24.54862 -5.332403,-42.56781 -15.30664,-53.75391 -14.904315,1.48731 -28.108129,4.11412 -38.992189,6.93164 -0.96139,0.24887 -1.87045,0.50005 -2.80078,0.75 3.0809,0.75638 5.67227,3.35061 7.71875,7.875 2.21886,4.66829 3.34961,10.57472 3.34961,17.63477 v 55.77539 c 0,20.59181 2.10899,36.09062 6.47266,46.85156 z M -121.00195,237.05859 c -12.66419,3.41496 -22.31765,6.83469 -28.99805,9.36133 v 81.09961 l 28.83594,23.15625 z m 531.90625,11.36329 c -9.39137,4.85687 -20.24599,9.65278 -32.70703,13.98632 -11.30188,3.91977 -23.39743,7.18744 -36.25977,9.66407 v 23.33984 c 11.91194,-2.05104 23.17779,-4.77267 33.78906,-8.07227 13.31919,-4.1289 25.02764,-8.79264 35.17774,-13.48437 z m 39.49023,5.78906 c -11.84828,10.5449 -34.83503,27.64531 -72.19726,40.63867 -11.30188,3.91976 -23.39743,7.18744 -36.25977,9.66406 v 79.4336 l 75.41211,-70.4375 c 11.76722,-10.99106 18.93131,-18.42641 22.93164,-23.5586 3.722,-4.7607 6.30817,-10.36859 7.92773,-16.91406 1.18681,-4.79645 1.90724,-11.05391 2.18555,-18.82617 z m -302.38281,0.0215 -1.00195,20.42578 c 1.99722,0.63888 3.99398,1.27917 6,1.90235 10.35793,3.21771 20.56643,6.12449 30.67578,8.72265 0.24678,-6.61554 0.49163,-13.87011 0.73828,-20.84765 -11.46291,-2.82093 -23.01695,-6.03651 -34.72071,-9.66602 -0.56614,-0.17557 -1.12615,-0.36022 -1.6914,-0.53711 z m 48.92773,13.12891 c 0.19605,6.70295 0.37081,13.04351 0.50977,18.83008 l -6.78906,0.83789 c 13.22861,3.21903 26.29891,5.8869 39.30078,7.92773 1.19123,0.1865 2.37326,0.35807 3.55664,0.5332 l -0.9082,-21.68164 c -1.42386,-0.19763 -2.84893,-0.39672 -4.28321,-0.61132 -10.418,-1.55464 -20.86979,-3.52022 -31.38672,-5.83594 z m 144.95313,4.71875 c -11.59391,2.23042 -23.81287,3.81562 -36.63281,4.66015 v 22.64649 c 12.66971,-0.60563 24.7284,-1.93606 36.18945,-3.88867 0.22399,-7.19211 0.37611,-14.96512 0.44336,-23.41797 z m -101.98047,2.67773 v 5.43555 c 0,5.68998 0.0217,11.02774 0.0547,16.20312 17.50168,2.31477 34.12373,3.38009 49.875,3.35938 v -22.375 c -15.81257,0.28984 -32.46465,-0.52527 -49.92969,-2.62305 z m -93.4668,11.41992 -9.06445,184.91407 43.00195,-9.58789 2.04297,-87.55469 14.54492,-2.51563 2.38477,85.8418 40.55664,-9.04101 -5.93555,-141.79102 c -1.87434,-0.25367 -3.7579,-0.51958 -5.65039,-0.80274 -25.82971,-3.85445 -51.8496,-10.12684 -78.62305,-18.42968 -1.09031,-0.33813 -2.17081,-0.69024 -3.25781,-1.03321 z m 194.66211,18.49024 c -11.37924,2.15558 -23.35402,3.69491 -35.9082,4.51953 -0.13141,13.86605 -0.55164,23.17418 -1.29883,27.38086 -0.84642,5.26275 -2.78177,8.56942 -5.83984,9.91797 -3.51784,1.55129 -5.78406,-0.46101 -6.75391,-6.08203 -0.83573,-4.84368 -1.31203,-15.06902 -1.43164,-30.58008 -15.77627,0.29074 -32.38902,-0.52176 -49.81055,-2.60742 0.22566,19.07765 0.70525,34.1845 1.44922,45.11132 1.06146,15.77378 4.17153,29.86221 9.24219,42.10157 5.03508,11.90857 11.76536,19.42436 20.02539,22.6582 8.0094,3.23044 16.80848,1.77152 26.27148,-4.05859 12.13059,-7.47357 21.56833,-18.74765 28.67188,-33.71485 6.82552,-14.38139 11.16689,-29.66856 13.20312,-46.13086 0.95807,-7.67795 1.68002,-17.21653 2.17969,-28.51562 z"
         style="font-style:normal;font-variant:normal;font-weight:normal;font-stretch:normal;font-size:50.79999924px;line-height:6.61458302px;font-family:Impact;-inkscape-font-specification:Impact;letter-spacing:0px;word-spacing:0px;opacity:1;fill:#ffffff;fill-opacity:1;stroke:none;stroke-width:0.99999994px;stroke-linecap:butt;stroke-linejoin:miter;stroke-opacity:1" />
      <ellipse
         ry="4.1577382"
         rx="4.9136906"
         cy="47.913681"
         cx="-51.782734"
         id="path5134"
         style="color:#000000;clip-rule:nonzero;display:inline;overflow:visible;visibility:visible;opacity:1;isolation:auto;mix-blend-mode:normal;color-interpolation:sRGB;color-interpolation-filters:linearRGB;solid-color:#000000;solid-opacity:1;fill:#ffffff;fill-opacity:1;fill-rule:nonzero;stroke:none;stroke-width:5;stroke-linecap:butt;stroke-linejoin:round;stroke-miterlimit:4;stroke-dasharray:none;stroke-dashoffset:0;stroke-opacity:1;marker:none;color-rendering:auto;image-rendering:auto;shape-rendering:auto;text-rendering:auto;enable-background:accumulate" />
    </g>
  </g>
</svg>
